<?xml version="1.0" standalone="no"?>
<!DOCTYPE svg PUBLIC "-//W3C//DTD SVG 20010904//EN"
 "http://www.w3.org/TR/2001/REC-SVG-20010904/DTD/svg10.dtd">
<svg version="1.0" xmlns="http://www.w3.org/2000/svg"
 viewBox="0 0 480.000000 502.000000" preserveAspectRatio="xMidYMid meet">

<g transform="translate(0.000000,502.000000) scale(0.100000,-0.100000)"
fill="#FFFFFF" stroke="none">
<path d="M700 4979 c-36 -22 -69 -44 -73 -49 -5 -4 375 -584 843 -1290 l852
-1282 2 -72 c6 -273 323 -400 514 -205 151 154 87 416 -121 494 l-58 21 -930
1190 c-512 654 -938 1199 -948 1212 l-16 23 -65 -42z"/>
<path d="M2220 4724 c-275 -24 -478 -70 -705 -161 -60 -24 -111 -46 -113 -48
-2 -2 66 -94 152 -203 l157 -200 91 39 c211 92 417 137 658 146 221 8 397 -15
604 -78 382 -117 735 -376 963 -706 29 -42 54 -77 56 -79 6 -6 240 121 244
132 5 14 -131 216 -208 311 -371 455 -884 747 -1452 828 -104 15 -366 26 -447
19z"/>
<path d="M721 3984 c-72 -70 -165 -168 -206 -219 -266 -331 -432 -716 -497
-1150 -19 -133 -16 -481 6 -625 140 -908 785 -1639 1673 -1894 1083 -312 2252
198 2751 1200 96 192 167 399 206 604 57 301 44 685 -33 987 -11 41 -21 77
-24 79 -6 7 -228 -128 -234 -141 -2 -7 5 -57 16 -111 100 -483 1 -989 -274
-1399 -527 -788 -1558 -1068 -2413 -655 -537 259 -915 742 -1032 1317 -116
574 51 1176 445 1611 l57 62 -33 53 c-64 101 -269 407 -273 407 -2 0 -63 -57
-135 -126z"/>
<path d="M3905 3054 c-440 -239 -837 -455 -882 -480 l-81 -44 33 -50 c41 -61
65 -130 73 -215 l7 -65 850 545 c468 300 858 551 868 558 17 11 16 17 -19 100
-20 48 -40 87 -43 87 -3 0 -366 -196 -806 -436z"/>
</g>
</svg>
